<svg xmlns="http://www.w3.org/2000/svg" viewBox="0 0 31 31"><defs><style>.cls-1{fill:#8ec6ec;}</style></defs><title>premium-version</title><g id="Layer_4" data-name="Layer 4"><path class="cls-1" d="M25,8.77a1.77,1.77,0,0,0-1.92.38l-2.28,2.28-4-4a1.77,1.77,0,0,0-2.5,0l-4,4L7.94,9.15a1.77,1.77,0,0,0-3,1.25v9.32a4.42,4.42,0,0,0,4.41,4.4H21.66a4.42,4.42,0,0,0,4.41-4.4V10.4A1.76,1.76,0,0,0,25,8.77Zm-.67,11a2.65,2.65,0,0,1-2.65,2.64H9.34a2.65,2.65,0,0,1-2.65-2.64V10.4l2.9,2.9a.89.89,0,0,0,1.25,0L15.5,8.64l4.66,4.66a.89.89,0,0,0,1.25,0l2.9-2.9Z"/></g></svg>