<?xml version="1.0" encoding="utf-8"?>
<!-- Generator: Adobe Illustrator 23.0.3, SVG Export Plug-In . SVG Version: 6.00 Build 0)  -->
<svg version="1.1" id="Layer_1" xmlns="http://www.w3.org/2000/svg" xmlns:xlink="http://www.w3.org/1999/xlink" x="0px" y="0px"
	 viewBox="0 0 30 30" style="enable-background:new 0 0 30 30;" xml:space="preserve">
<style type="text/css">
	.st0{fill:#8EC6EC;}
</style>
<title>enabled-check</title>
<g>
	<path class="st0" d="M10.8,24.2c-0.7,0-1.3-0.3-1.8-0.8l-5.4-5.8c-0.6-0.6-0.6-1.6,0-2.3l0,0c0.5-0.6,1.4-0.6,2-0.1
		c0,0,0.1,0.1,0.1,0.1l5.1,5.5L24.2,6.3c0.5-0.6,1.4-0.6,2-0.1c0,0,0.1,0.1,0.1,0.1l0,0c0.6,0.6,0.6,1.6,0,2.3L12.6,23.4
		C12.2,23.9,11.5,24.2,10.8,24.2z"/>
</g>
</svg>
