<?xml version="1.0" encoding="utf-8"?>
<!-- Generator: Adobe Illustrator 23.0.3, SVG Export Plug-In . SVG Version: 6.00 Build 0)  -->
<svg version="1.1" id="Layer_1" xmlns="http://www.w3.org/2000/svg" xmlns:xlink="http://www.w3.org/1999/xlink" x="0px" y="0px"
	 viewBox="0 0 30 30" style="enable-background:new 0 0 30 30;" xml:space="preserve">
<style type="text/css">
	.st0{fill:#8EC6EC;}
</style>
<title>enabled-send</title>
<g>
	<path class="st0" d="M4.5,4.5c0.7-0.7,1.7-1,2.7-0.8l15.2,3.2c2.6,0.4,4.4,2.8,4,5.4c-0.1,1-0.6,1.9-1.3,2.6l-1.6,1.6
		c-0.2,0.2-0.3,0.4-0.3,0.7v3c0,0.4-0.1,0.8-0.3,1.2l0,0l0,0c-0.3,0.6-0.7,1-1.3,1.3l0,0l0,0c-0.4,0.2-0.8,0.3-1.2,0.3h-3
		c-0.3,0-0.5,0.1-0.7,0.3L14.9,25c-0.9,0.9-2.1,1.4-3.3,1.4c-0.5,0-1-0.1-1.5-0.3c-1.7-0.6-2.9-2-3.2-3.8L3.7,7.2
		C3.5,6.2,3.8,5.2,4.5,4.5z M22,15.2l1.6-1.6c1.1-1.1,1.1-2.9,0-4c-0.4-0.4-1-0.7-1.6-0.8L7,5.6l14.2,14.2v-2.6
		C21.2,16.5,21.5,15.8,22,15.2z M8.8,22c0.2,1.6,1.6,2.6,3.2,2.4c0.6-0.1,1.2-0.4,1.6-0.8l1.6-1.6c0.5-0.5,1.2-0.8,2-0.8h2.6L5.6,7
		L8.8,22z"/>
</g>
</svg>
